<svg width="33" height="32" viewBox="0 0 33 32" fill="none" xmlns="http://www.w3.org/2000/svg">
<path fill-rule="evenodd" clip-rule="evenodd" d="M0.0625 16C0.0625 7.16344 7.22594 0 16.0625 0C24.8991 0 32.0625 7.16344 32.0625 16C32.0625 24.8366 24.8991 32 16.0625 32C7.22594 32 0.0625 24.8366 0.0625 16ZM16.0625 8C20.4625 8 24.0625 11.6 24.0625 16C24.0625 20 21.1625 23.4 17.1625 24V18.3H19.0625L19.4625 16H17.2625V14.5C17.2625 13.9 17.5625 13.3 18.5625 13.3H19.5625V11.3C19.5625 11.3 18.6625 11.1 17.7625 11.1C15.9625 11.1 14.7625 12.2 14.7625 14.2V16H12.7625V18.3H14.7625V23.9C10.9625 23.3 8.0625 20 8.0625 16C8.0625 11.6 11.6625 8 16.0625 8Z" fill="#011632"/>
</svg>
