<svg width="34" height="35" viewBox="0 0 34 35" fill="none" xmlns="http://www.w3.org/2000/svg">
<path d="M28.4227 11.1357C28.1467 10.9105 27.7595 10.8082 27.3805 10.8605C27.0009 10.9127 26.6729 11.1127 26.4969 11.3998C25.8911 12.3875 25.1217 13.2952 24.2165 14.0975C24.3068 13.5179 24.3522 12.9348 24.3522 12.3502C24.3522 11.2284 24.1731 10.074 23.8196 8.91863C22.6575 5.12375 19.6102 1.91449 15.4594 0.113763C15.098 -0.0429603 14.6674 -0.0374579 14.3118 0.128437C13.9563 0.2944 13.7234 0.598677 13.6916 0.939027C13.368 4.38763 11.2516 7.5251 7.88196 9.54901C7.83737 9.57596 7.79309 9.60327 7.74882 9.63045C7.6571 9.68676 7.57066 9.74002 7.48991 9.78473C7.47724 9.79181 7.46472 9.79901 7.45242 9.80641C5.33316 11.0799 3.58453 12.7776 2.39529 14.7164C1.18691 16.6885 0.574219 18.8047 0.574219 21.0061C0.574219 22.1275 0.75333 23.282 1.10662 24.4375C2.97101 30.5283 9.50135 34.7822 16.9872 34.7822C26.0369 34.7822 33.3992 28.6022 33.3992 21.0061C33.3992 17.2602 31.6319 13.7548 28.4227 11.1357Z" fill="#011632"/>
<path d="M16.3589 25.2953C19.1331 25.2953 21.3819 23.4078 21.3819 21.0793C21.3819 18.7509 19.1331 16.8633 16.3589 16.8633C13.5848 16.8633 11.3359 18.7509 11.3359 21.0793C11.3359 23.4078 13.5848 25.2953 16.3589 25.2953Z" fill="white"/>
</svg>
