<svg width="33" height="35" viewBox="0 0 33 35" fill="none" xmlns="http://www.w3.org/2000/svg">
<path d="M27.381 11.1357C27.1096 10.9105 26.7289 10.8082 26.3563 10.8605C25.983 10.9127 25.6606 11.1127 25.4874 11.3998C24.8919 12.3875 24.1354 13.2952 23.2454 14.0975C23.3341 13.5179 23.3788 12.9348 23.3788 12.3502C23.3788 11.2284 23.2027 10.074 22.8551 8.91863C21.7125 5.12375 18.7165 1.91449 14.6353 0.113763C14.28 -0.0429603 13.8566 -0.0374579 13.507 0.128437C13.1574 0.2944 12.9285 0.598677 12.8971 0.939027C12.579 4.38763 10.4982 7.5251 7.18506 9.54901C7.14121 9.57596 7.09768 9.60327 7.05415 9.63045C6.96397 9.68676 6.87898 9.74002 6.79959 9.78473C6.78714 9.79181 6.77482 9.79901 6.76273 9.80641C4.67905 11.0799 2.95978 12.7776 1.7905 14.7164C0.602405 16.6885 0 18.8047 0 21.0061C0 22.1275 0.176104 23.282 0.52346 24.4375C2.35655 30.5283 8.77726 34.7822 16.1375 34.7822C25.0352 34.7822 32.274 28.6022 32.274 21.0061C32.274 17.2602 30.5363 13.7548 27.381 11.1357Z" fill="#011632"/>
<path d="M15.5207 25.2953C18.2483 25.2953 20.4594 23.4078 20.4594 21.0793C20.4594 18.7509 18.2483 16.8633 15.5207 16.8633C12.7932 16.8633 10.582 18.7509 10.582 21.0793C10.582 23.4078 12.7932 25.2953 15.5207 25.2953Z" fill="white"/>
</svg>
