<svg width="33" height="32" viewBox="0 0 33 32" fill="none" xmlns="http://www.w3.org/2000/svg">
<path d="M16.0625 18.8C14.5625 18.8 13.2625 17.6 13.2625 16C13.2625 14.5 14.4625 13.2 16.0625 13.2C17.5625 13.2 18.8625 14.4 18.8625 16C18.8625 17.5 17.5625 18.8 16.0625 18.8Z" fill="#011632"/>
<path fill-rule="evenodd" clip-rule="evenodd" d="M19.4625 9.2H12.6625C11.8625 9.3 11.4625 9.4 11.1625 9.5C10.7625 9.6 10.4625 9.8 10.1625 10.1C9.92511 10.3374 9.81295 10.5748 9.67739 10.8617C9.64166 10.9373 9.6042 11.0166 9.5625 11.1C9.54703 11.1464 9.52917 11.1952 9.51002 11.2475C9.40541 11.5333 9.2625 11.9238 9.2625 12.6V19.4C9.3625 20.2 9.4625 20.6 9.5625 20.9C9.6625 21.3 9.8625 21.6 10.1625 21.9C10.3999 22.1374 10.6373 22.2495 10.9242 22.3851C10.9999 22.4209 11.079 22.4583 11.1625 22.5C11.2089 22.5155 11.2577 22.5333 11.31 22.5525C11.5958 22.6571 11.9863 22.8 12.6625 22.8H19.4625C20.2625 22.7 20.6625 22.6 20.9625 22.5C21.3625 22.4 21.6625 22.2 21.9625 21.9C22.1999 21.6626 22.312 21.4252 22.4476 21.1383C22.4834 21.0626 22.5208 20.9835 22.5625 20.9C22.578 20.8536 22.5958 20.8048 22.615 20.7525C22.7196 20.4667 22.8625 20.0762 22.8625 19.4V12.6C22.7625 11.8 22.6625 11.4 22.5625 11.1C22.4625 10.7 22.2625 10.4 21.9625 10.1C21.7251 9.86261 21.4877 9.75045 21.2008 9.61488C21.1252 9.57918 21.0458 9.54167 20.9625 9.5C20.9161 9.48453 20.8673 9.46666 20.815 9.44752C20.5292 9.3429 20.1387 9.2 19.4625 9.2ZM16.0625 11.7C13.6625 11.7 11.7625 13.6 11.7625 16C11.7625 18.4 13.6625 20.3 16.0625 20.3C18.4625 20.3 20.3625 18.4 20.3625 16C20.3625 13.6 18.4625 11.7 16.0625 11.7ZM21.4625 11.6C21.4625 12.1523 21.0148 12.6 20.4625 12.6C19.9102 12.6 19.4625 12.1523 19.4625 11.6C19.4625 11.0477 19.9102 10.6 20.4625 10.6C21.0148 10.6 21.4625 11.0477 21.4625 11.6Z" fill="#011632"/>
<path fill-rule="evenodd" clip-rule="evenodd" d="M0.0625 16C0.0625 7.16344 7.22594 0 16.0625 0C24.8991 0 32.0625 7.16344 32.0625 16C32.0625 24.8366 24.8991 32 16.0625 32C7.22594 32 0.0625 24.8366 0.0625 16ZM12.6625 7.7H19.4625C20.3625 7.8 20.9625 7.9 21.4625 8.1C22.0625 8.4 22.4625 8.6 22.9625 9.1C23.4625 9.6 23.7625 10.1 23.9625 10.6C24.1625 11.1 24.3625 11.7 24.3625 12.6V19.4C24.2625 20.3 24.1625 20.9 23.9625 21.4C23.6625 22 23.4625 22.4 22.9625 22.9C22.4625 23.4 21.9625 23.7 21.4625 23.9C20.9625 24.1 20.3625 24.3 19.4625 24.3H12.6625C11.7625 24.2 11.1625 24.1 10.6625 23.9C10.0625 23.6 9.6625 23.4 9.1625 22.9C8.6625 22.4 8.3625 21.9 8.1625 21.4C7.9625 20.9 7.7625 20.3 7.7625 19.4V12.6C7.8625 11.7 7.9625 11.1 8.1625 10.6C8.4625 10 8.6625 9.6 9.1625 9.1C9.6625 8.6 10.1625 8.3 10.6625 8.1C11.1625 7.9 11.7625 7.7 12.6625 7.7Z" fill="#011632"/>
</svg>
