<svg width="33" height="32" viewBox="0 0 33 32" fill="none" xmlns="http://www.w3.org/2000/svg">
<path fill-rule="evenodd" clip-rule="evenodd" d="M0.0625 16C0.0625 7.16344 7.22594 0 16.0625 0C24.8991 0 32.0625 7.16344 32.0625 16C32.0625 24.8366 24.8991 32 16.0625 32C7.22594 32 0.0625 24.8366 0.0625 16ZM8.2625 13.3V24H11.6625V13.3H8.2625ZM8.0625 9.9C8.0625 11 8.8625 11.8 9.9625 11.8C11.0625 11.8 11.8625 11 11.8625 9.9C11.8625 8.8 11.0625 8 9.9625 8C8.9625 8 8.0625 8.8 8.0625 9.9ZM20.6625 24H23.8625V17.4C23.8625 14.1 21.8625 13 19.9625 13C18.2625 13 17.0625 14.1 16.7625 14.8V13.3H13.5625V24H16.9625V18.3C16.9625 16.8 17.9625 16 18.9625 16C19.9625 16 20.6625 16.5 20.6625 18.2V24Z" fill="#011632"/>
</svg>
