<svg width="48" height="52" viewBox="0 0 48 52" fill="none" xmlns="http://www.w3.org/2000/svg">
<g clip-path="url(#clip0_168_437)">
<path d="M6.07031 20.8739C8.26894 25.3929 11.6265 28.1991 14.846 29.939C19.9911 32.7194 25.5286 33.0704 30.7613 30.9952L30.8565 30.9577" stroke="white" stroke-width="1.5" stroke-miterlimit="10" stroke-linecap="round" stroke-linejoin="round"/>
<path d="M33.8086 29.4893C36.7689 27.7278 39.7668 25.0265 41.7858 20.8914" stroke="white" stroke-width="1.5" stroke-miterlimit="10" stroke-linecap="round" stroke-linejoin="round"/>
<path d="M0.693359 20.1599C1.4968 21.1995 2.30614 22.2315 3.11736 23.2613C7.1878 28.4288 11.1469 33.5118 16.4516 36.593C21.5465 39.5525 26.4408 39.56 31.5489 36.5929C36.8536 33.5118 40.8126 28.4288 44.8831 23.2613C45.6943 22.2315 46.5036 21.1995 47.3071 20.1599" stroke="white" stroke-width="1.5" stroke-miterlimit="10" stroke-linecap="round" stroke-linejoin="round"/>
<path d="M19.418 21.902V25.2595C19.418 25.7919 19.8188 26.2236 20.3135 26.2236H23.0856C23.5801 26.2236 23.9811 25.7919 23.9811 25.2595V22.0008" stroke="white" stroke-width="1.5" stroke-miterlimit="10" stroke-linecap="round" stroke-linejoin="round"/>
<path d="M23.9883 22.0008V25.2595C23.9883 25.792 24.3892 26.2236 24.8838 26.2236H27.656C28.1505 26.2236 28.5514 25.792 28.5514 25.2595V21.902" stroke="white" stroke-width="1.5" stroke-miterlimit="10" stroke-linecap="round" stroke-linejoin="round"/>
<path d="M28.582 21.902V25.3925C28.582 25.8515 28.9277 26.2236 29.354 26.2236H31.7435C32.1698 26.2236 32.5153 25.8515 32.5153 25.3925V21.7064" stroke="white" stroke-width="1.5" stroke-miterlimit="10" stroke-linecap="round" stroke-linejoin="round"/>
<path d="M32.5156 21.7079V23.9803C32.5156 24.4145 32.8426 24.7666 33.2459 24.7666H35.5067C35.9101 24.7666 36.2371 24.4145 36.2371 23.9803V21.4381" stroke="white" stroke-width="1.5" stroke-miterlimit="10" stroke-linecap="round" stroke-linejoin="round"/>
<path d="M19.4177 21.902V25.3925C19.4177 25.8515 19.072 26.2236 18.6457 26.2236H16.2562C15.8299 26.2236 15.4844 25.8515 15.4844 25.3925V21.7064" stroke="white" stroke-width="1.5" stroke-miterlimit="10" stroke-linecap="round" stroke-linejoin="round"/>
<path d="M15.4852 21.708V23.9803C15.4852 24.4145 15.1582 24.7666 14.7549 24.7666H12.4941C12.0907 24.7666 11.7637 24.4145 11.7637 23.9803V21.4381" stroke="white" stroke-width="1.5" stroke-miterlimit="10" stroke-linecap="round" stroke-linejoin="round"/>
<path d="M15.4426 12.2101C18.3599 11.0629 21.3402 10.856 24.0002 13.3483C29.1947 8.48121 35.6108 13.908 40.3934 16.5287C42.6782 17.7807 45.0024 18.9372 47.2973 20.1649C47.2973 20.1649 36.2395 21.9398 24.0099 22.0008V22.001C24.0067 22.001 24.0035 22.0009 24.0002 22.0009C23.997 22.0009 23.9937 22.001 23.9904 22.001V22.0008C11.7608 21.9398 0.703125 20.1649 0.703125 20.1649C2.99803 18.9372 5.32219 17.7807 7.60697 16.5287C9.06769 15.7282 10.6807 14.6662 12.3649 13.7154L12.5073 13.6354" stroke="white" stroke-width="1.5" stroke-miterlimit="10" stroke-linecap="round" stroke-linejoin="round"/>
<path d="M39.3604 36.8783C39.0563 37.5727 38.1755 39.2683 36.6234 39.8452C36.5031 39.8899 36.5031 40.0741 36.6234 40.1188C38.1755 40.6956 39.0563 42.3912 39.3604 43.0856C39.4091 43.1967 39.556 43.1967 39.6047 43.0856C39.9088 42.3912 40.7896 40.6956 42.3417 40.1188C42.462 40.0741 42.462 39.8899 42.3417 39.8452C40.7896 39.2683 39.9088 37.5727 39.6047 36.8783C39.556 36.7673 39.4091 36.7673 39.3604 36.8783Z" stroke="white" stroke-width="1.5" stroke-miterlimit="10" stroke-linecap="round" stroke-linejoin="round"/>
<path d="M9.46245 2.12684C9.04358 3.08323 7.83045 5.41872 5.69267 6.2131C5.52692 6.27467 5.52692 6.52843 5.69267 6.59C7.83045 7.38438 9.04358 9.71997 9.46245 10.6762C9.52948 10.8293 9.7318 10.8293 9.79883 10.6762C10.2177 9.71997 11.4308 7.38438 13.5686 6.59C13.7343 6.52843 13.7343 6.27467 13.5686 6.2131C11.4308 5.41872 10.2177 3.08323 9.79883 2.12684C9.7318 1.97382 9.52948 1.97382 9.46245 2.12684Z" stroke="white" stroke-width="1.5" stroke-miterlimit="10" stroke-linecap="round" stroke-linejoin="round"/>
<path d="M32.441 41.4501C32.0221 42.4065 30.809 44.742 28.6712 45.5363C28.5054 45.5979 28.5054 45.8517 28.6712 45.9132C30.809 46.7076 32.0221 49.0432 32.441 49.9995C32.5079 50.1525 32.7103 50.1525 32.7773 49.9995C33.1962 49.0432 34.4093 46.7076 36.5471 45.9132C36.7128 45.8517 36.7128 45.5979 36.5471 45.5363C34.4093 44.742 33.1962 42.4065 32.7773 41.4501C32.7103 41.2971 32.5079 41.2971 32.441 41.4501Z" stroke="white" stroke-width="1.5" stroke-miterlimit="10" stroke-linecap="round" stroke-linejoin="round"/>
</g>
<defs>
<clipPath id="clip0_168_437">
<rect width="48" height="51.68" fill="white" transform="translate(0 0.223633)"/>
</clipPath>
</defs>
</svg>
