<svg width="48" height="52" viewBox="0 0 48 52" fill="none" xmlns="http://www.w3.org/2000/svg">
<g clip-path="url(#clip0_168_482)">
<path d="M39.9597 5.5181C39.7806 5.14708 39.3558 5.00237 39.0116 5.19518C38.667 5.38799 38.5326 5.84496 38.7116 6.21598C39.629 8.11723 39.8216 10.3024 39.254 12.3684C39.0277 13.1941 37.0395 20.4442 36.9527 20.8042C36.9355 20.8759 36.8758 20.9264 36.8081 20.9264H20.2151C19.8266 20.9264 19.512 21.2651 19.512 21.6834C19.512 22.1014 19.8266 22.4404 20.2151 22.4404H34.6745L34.2838 24.7537C34.2706 24.8302 34.2091 24.8854 34.1369 24.8854H13.8775C13.8054 24.8854 13.7438 24.8302 13.731 24.7537L13.3399 22.4404H17.1532C17.5414 22.4404 17.8564 22.1014 17.8564 21.6834C17.8564 21.2651 17.5414 20.9264 17.1532 20.9264H11.2064C11.1386 20.9264 11.0789 20.8763 11.0617 20.8046C11.0599 20.7967 11.0577 20.7888 11.0559 20.7809L8.76045 12.3684C8.06575 9.83868 8.50814 7.17607 9.97444 5.0627C11.4407 2.94972 13.6867 1.73769 16.1366 1.73769C16.8658 1.73769 17.5868 1.8473 18.2801 2.06337C22.0268 3.23164 25.988 3.23164 29.7344 2.06337C30.4276 1.8473 31.1487 1.73769 31.8778 1.73769C33.7627 1.73769 35.5714 2.47421 36.9714 3.81163C37.2618 4.08921 37.7064 4.06082 37.9642 3.74815C38.222 3.43509 38.1953 2.95682 37.9049 2.67924C36.2474 1.09579 34.1069 0.223633 31.8778 0.223633C31.0165 0.223633 30.1636 0.353353 29.3433 0.60885C25.8526 1.69747 22.1619 1.69747 18.6712 0.60885C17.8509 0.353353 16.998 0.223633 16.1366 0.223633C13.2388 0.223633 10.582 1.65726 8.84761 4.15663C7.11324 6.65601 6.58993 9.80556 7.4117 12.7962L9.70381 21.1977C9.88582 21.9302 10.5021 22.4404 11.2064 22.4404H11.9106L12.3475 25.0246C12.4819 25.8214 13.1257 26.3995 13.8775 26.3995H16.9416L17.4382 31.0047L16.9427 31.1475C16.43 31.2953 16.0015 31.6494 15.7364 32.1442C15.4709 32.639 15.4006 33.2155 15.5379 33.7671C15.7756 34.7216 16.5801 35.3525 17.4572 35.3525C17.604 35.3525 17.7531 35.3336 17.9018 35.2969L18.1545 37.6394L17.4843 37.833C16.4263 38.1381 15.7961 39.3131 16.0795 40.4526C16.3172 41.4068 17.1217 42.038 17.9988 42.038C18.1687 42.038 18.3409 42.0144 18.5126 41.9647L18.6177 41.9343L18.8704 44.2744L18.2965 44.44C17.7839 44.5879 17.3558 44.9419 17.0903 45.4368C16.8251 45.9316 16.7548 46.5076 16.8921 47.0596C17.0291 47.6112 17.358 48.0726 17.8175 48.3584C18.1237 48.5485 18.4632 48.6458 18.8074 48.6458C18.9799 48.6458 19.1538 48.6214 19.3249 48.5721L19.334 48.5694L19.5255 50.344C19.6211 51.2331 20.3206 51.9038 21.1523 51.9038H26.8626C27.6939 51.9038 28.3933 51.2331 28.4893 50.344L28.9811 45.7865L29.7183 45.5736C30.7759 45.2684 31.4061 44.0934 31.1227 42.9543C30.9081 42.0924 30.231 41.4951 29.4557 41.387L29.7432 38.7248L30.5305 38.4977C31.5881 38.1929 32.2184 37.0176 31.9349 35.8785C31.7159 34.9984 31.0154 34.394 30.22 34.3049L30.5052 31.6636L31.0718 31.5003C32.1301 31.1948 32.76 30.0198 32.4765 28.8807C32.277 28.0791 31.6775 27.5066 30.9711 27.3434L31.0732 26.3999H34.1369C34.8891 26.3999 35.5326 25.8214 35.6673 25.025L36.1042 22.4404H36.8081C37.5167 22.4404 38.136 21.9239 38.3139 21.1846C38.3758 20.9276 39.7165 16.0282 40.6027 12.7978C41.2736 10.3544 41.0455 7.76908 39.9597 5.5181V5.5181ZM27.0922 50.169C27.0786 50.2947 26.9797 50.3894 26.8626 50.3894H21.1519C21.0347 50.3894 20.9358 50.2947 20.9223 50.169L20.7069 48.1731L27.5199 46.2076L27.0922 50.169ZM29.764 43.3459C29.8472 43.6786 29.663 44.0217 29.3539 44.1112L18.9609 47.1093C18.8111 47.1527 18.6547 47.1302 18.5207 47.047C18.3863 46.9634 18.2903 46.829 18.2504 46.6677C18.2101 46.5065 18.2306 46.3381 18.3083 46.1938C18.3859 46.0491 18.5108 45.9458 18.6606 45.9024L29.0536 42.9043C29.1038 42.8897 29.1539 42.883 29.2037 42.883C29.4597 42.8826 29.6948 43.0671 29.764 43.3459V43.3459ZM28.0128 41.637L20.2433 43.8785L19.991 41.5381L28.2816 39.1463L28.0128 41.637ZM30.5767 36.27C30.6594 36.6028 30.4752 36.9462 30.1661 37.0353L18.1486 40.5023C17.8395 40.5918 17.5206 40.3934 17.4378 40.0607C17.355 39.7279 17.5392 39.3849 17.8483 39.2954L29.8658 35.8284C29.916 35.8138 29.9665 35.8071 30.016 35.8071C30.2723 35.8071 30.5074 35.9912 30.5767 36.27V36.27ZM31.1183 29.2722C31.201 29.605 31.0168 29.9484 30.7078 30.0375L26.4114 31.2772C26.0364 31.3852 25.8137 31.8004 25.9144 32.2041C26.0148 32.6079 26.4 32.8476 26.7754 32.7396L29.0437 32.0851L28.7749 34.5758L19.5274 37.2435L19.2751 34.9034L23.8153 33.5936C24.1907 33.4852 24.413 33.07 24.3126 32.6662C24.2123 32.2625 23.8267 32.0228 23.4513 32.1308L17.607 33.8172C17.2979 33.9063 16.9793 33.7079 16.8962 33.3752C16.8562 33.2143 16.8768 33.0459 16.9544 32.9012C17.0317 32.7569 17.1569 32.6532 17.3067 32.6102L30.4075 28.8306C30.7165 28.7411 31.0355 28.9398 31.1183 29.2722V29.2722ZM29.537 27.5141L18.8114 30.6085L18.3573 26.3995H29.6575L29.537 27.5141Z" fill="white"/>
<path d="M29.3443 4.64614C25.8536 5.73476 22.1629 5.73476 18.6722 4.64614C18.2994 4.53022 17.9091 4.76127 17.8014 5.16304C17.6934 5.56443 17.908 5.98434 18.2811 6.10065C20.1543 6.68499 22.0813 6.97715 24.0083 6.97715C25.9353 6.97715 27.8623 6.68499 29.7354 6.10065C30.1086 5.98434 30.3236 5.56443 30.2155 5.16304C30.1075 4.76127 29.7171 4.53022 29.3443 4.64614Z" fill="white"/>
</g>
<defs>
<clipPath id="clip0_168_482">
<rect width="48" height="51.68" fill="white" transform="translate(0 0.223633)"/>
</clipPath>
</defs>
</svg>
