<svg width="48" height="52" viewBox="0 0 48 52" fill="none" xmlns="http://www.w3.org/2000/svg">
<g clip-path="url(#clip0_168_420)">
<path d="M41.2976 4.80019C40.1426 3.68907 38.8248 2.78467 37.3878 2.15967C35.9156 1.51932 34.3421 1.17856 32.7581 1.09619C32.4761 1.08166 32.1933 1.0752 31.9113 1.0752C30.4331 1.07923 28.9151 1.49267 27.5193 2.27191C25.3173 3.50173 22.6901 3.50093 20.4888 2.27191C19.0931 1.49267 17.5743 1.07923 16.0968 1.0752C14.5061 1.0752 12.9161 1.30937 11.4033 1.8504C9.93332 2.37608 8.55782 3.18439 7.34582 4.22202C7.12982 4.40694 6.91757 4.59993 6.71132 4.79939C3.65057 7.75241 2.01707 12.1662 2.22932 16.9119C2.43407 21.207 3.75182 26.9491 8.73407 30.3495C8.70557 31.5438 8.68307 32.7728 8.76107 34.0155C8.81432 34.7714 8.87507 35.6281 8.99957 36.4792C9.67457 41.1805 11.0066 46.4365 15.7661 49.7723C16.9083 50.5725 18.7556 51.7321 20.0043 50.4708C20.8758 49.5898 21.0941 48.0014 21.1556 46.7781C21.1578 46.7207 21.4466 41.4558 24.0386 36.2523C25.0856 38.112 26.7236 41.8103 27.3033 47.4774C27.4661 49.0682 28.1028 51.0522 29.8938 51.0522C30.8261 51.0522 31.6706 50.4966 32.0066 50.2762C34.8251 48.4246 36.7916 45.9068 38.0186 42.5807C39.4833 38.6256 39.6273 34.7786 39.3386 30.3123C44.2908 26.8926 45.5831 21.1787 45.7691 16.903C45.9926 12.1589 44.3621 7.74757 41.2976 4.80019ZM29.7438 25.5812C28.4658 24.613 26.6861 23.5342 24.6438 22.7307C24.1968 22.5547 23.7971 22.432 23.3583 22.7307C21.3213 23.5318 19.5453 24.6066 18.2688 25.5731C18.0468 22.419 17.1888 19.2367 16.3923 16.9272L21.7143 18.4146C23.3658 18.8773 25.1096 18.866 26.7551 18.3823L31.5911 16.9183C30.8133 19.2528 29.9628 22.4328 29.7438 25.5812ZM24.7931 33.2064C24.5583 32.9262 24.2193 32.7801 23.8676 32.8099C23.5188 32.8398 23.2023 33.0433 23.0126 33.3607C19.2971 39.5558 18.9243 46.363 18.9108 46.6481C18.9101 46.657 18.9086 46.665 18.9086 46.6739C15.9671 39.0697 17.7963 30.4052 18.1848 28.7757C18.6123 28.2209 20.9201 26.2983 24.0011 25.0571C27.1286 26.3168 29.4618 28.2815 29.8376 28.8015C30.2838 30.3834 32.5271 39.2215 29.5038 46.9089C28.4966 37.7365 24.9461 33.3873 24.7931 33.2064ZM16.8303 47.6171C12.9483 44.79 11.8128 40.2212 11.2218 36.1037C11.1108 35.3463 11.0538 34.5404 11.0043 33.8395C10.9278 32.6323 10.9571 31.4299 10.9878 30.1549C11.0043 29.433 10.9293 28.9444 10.3128 28.5585C5.82107 25.7492 4.65707 20.6102 4.47482 16.7883C4.29557 12.7783 5.65682 9.0646 8.21132 6.60011C9.75107 5.11431 11.6396 4.1227 13.6728 3.72057C15.6468 3.33054 17.6433 3.40968 19.4516 4.41905C22.3008 6.00983 25.7036 6.01064 28.5536 4.41905C29.6321 3.81666 30.7946 3.49689 31.9158 3.49447C33.4916 3.49447 35.0658 3.7674 36.5313 4.4021C37.7298 4.92132 38.8346 5.6731 39.7961 6.60173C42.3513 9.05976 43.7103 12.7686 43.5228 16.7811C43.3563 20.628 42.1968 25.7992 37.6241 28.6134C37.2873 28.8209 37.0151 29.3256 37.0526 29.7689C37.3803 34.2174 37.3143 37.9448 35.9298 41.6828C35.0163 44.1594 33.6206 46.1054 31.6796 47.605C33.8831 41.8208 33.7338 35.0887 32.2608 29.1148C31.3518 25.4294 32.5428 21.2377 33.7076 17.7355C33.9873 16.8949 33.8111 15.9663 33.2478 15.309C32.6786 14.6485 31.8236 14.3844 31.0203 14.6202L26.1618 16.0438C24.8936 16.4153 23.5511 16.4242 22.2776 16.0689L16.9556 14.5814C16.1523 14.3561 15.3048 14.6275 14.7446 15.288C14.1881 15.9445 14.0156 16.8699 14.2938 17.704C15.4053 21.0382 16.6053 24.7697 15.9513 28.3525C15.5126 30.754 15.1091 33.1079 15.0176 35.5651C14.9448 37.5225 15.0191 39.4888 15.2763 41.4284C15.4848 42.9982 15.8178 44.5663 16.2881 46.0699C16.2881 46.0699 16.6211 47.3393 16.8303 47.6171Z" fill="white" stroke="#25B4F8" stroke-width="0.7"/>
</g>
<defs>
<clipPath id="clip0_168_420">
<rect width="48" height="51.68" fill="white" transform="translate(0 0.223633)"/>
</clipPath>
</defs>
</svg>
