<svg width="33" height="32" viewBox="0 0 33 32" fill="none" xmlns="http://www.w3.org/2000/svg">
<path fill-rule="evenodd" clip-rule="evenodd" d="M0.0625 16C0.0625 7.16344 7.22594 0 16.0625 0C24.8991 0 32.0625 7.16344 32.0625 16C32.0625 24.8366 24.8991 32 16.0625 32C7.22594 32 0.0625 24.8366 0.0625 16ZM22.1625 11.5C22.8625 11.4 23.4625 11.3 24.0625 11C23.6625 11.7 23.0625 12.3 22.3625 12.7C22.5625 17.4 19.1625 22.5 13.0625 22.5C11.2625 22.5 9.5625 21.9 8.0625 21C9.7625 21.2 11.5625 20.7 12.7625 19.8C11.2625 19.8 10.0625 18.8 9.6625 17.5C10.1625 17.6 10.6625 17.5 11.1625 17.4C9.6625 17 8.5625 15.6 8.5625 14.1C9.0625 14.3 9.5625 14.5 10.0625 14.5C8.6625 13.5 8.1625 11.6 9.0625 10.1C10.7625 12.1 13.1625 13.4 15.8625 13.5C15.3625 11.5 16.9625 9.5 19.0625 9.5C19.9625 9.5 20.8625 9.9 21.4625 10.5C22.2625 10.3 22.9625 10.1 23.5625 9.7C23.3625 10.5 22.8625 11.1 22.1625 11.5Z" fill="#011632"/>
</svg>
