<svg width="33" height="32" viewBox="0 0 33 32" fill="none" xmlns="http://www.w3.org/2000/svg">
<path d="M18.6625 16L14.4625 13.6V18.4L18.6625 16Z" fill="#011632"/>
<path fill-rule="evenodd" clip-rule="evenodd" d="M0.0625 16C0.0625 7.16344 7.22594 0 16.0625 0C24.8991 0 32.0625 7.16344 32.0625 16C32.0625 24.8366 24.8991 32 16.0625 32C7.22594 32 0.0625 24.8366 0.0625 16ZM22.2625 10.7C22.9625 10.9 23.4625 11.4 23.6625 12.1C24.0625 13.4 24.0625 16 24.0625 16C24.0625 16 24.0625 18.6 23.7625 19.9C23.5625 20.6 23.0625 21.1 22.3625 21.3C21.0625 21.6 16.0625 21.6 16.0625 21.6C16.0625 21.6 10.9625 21.6 9.7625 21.3C9.0625 21.1 8.5625 20.6 8.3625 19.9C8.0625 18.6 8.0625 16 8.0625 16C8.0625 16 8.0625 13.4 8.2625 12.1C8.4625 11.4 8.96251 10.9 9.66251 10.7C10.9625 10.4 15.9625 10.4 15.9625 10.4C15.9625 10.4 21.0625 10.4 22.2625 10.7Z" fill="#011632"/>
</svg>
