<svg width="104" height="20" fill="none" xmlns="http://www.w3.org/2000/svg"><path d="m10 0 2.245 6.91h7.266l-5.878 4.27 2.245 6.91L10 13.82l-5.878 4.27 2.245-6.91L.49 6.91h7.266L10 0ZM31 0l2.245 6.91h7.266l-5.878 4.27 2.245 6.91L31 13.82l-5.878 4.27 2.245-6.91-5.878-4.27h7.266L31 0ZM52 0l2.245 6.91h7.266l-5.878 4.27 2.245 6.91L52 13.82l-5.878 4.27 2.245-6.91-5.878-4.27h7.266L52 0ZM73 0l2.245 6.91h7.266l-5.878 4.27 2.245 6.91L73 13.82l-5.878 4.27 2.245-6.91-5.878-4.27h7.266L73 0ZM94 0l2.245 6.91h7.266l-5.878 4.27 2.245 6.91L94 13.82l-5.878 4.27 2.245-6.91-5.878-4.27h7.266L94 0Z" fill="#EC942C"/></svg>