<svg width="1282" height="416" fill="none" xmlns="http://www.w3.org/2000/svg"><path d="M1 282.758c15.034 0 129.289 129.289 280.483 129.289 210.04 0 323.13-470.987 618.953-339.33C1134.96 177.095 1238.05 188.262 1281 115.672" stroke="#E6F6FE"/><path d="M1 171.081c13.315 9.879 129.289 240.966 280.483 240.966 210.04 0 357.493-419.443 653.316-287.785C1169.32 228.638 1206.26 211.886 1281 158.624" stroke="#E6F6FE"/><path d="M1 351.485c15.034 0 129.289 64 280.483 64 210.04 0 325.584-551.293 601.772-382.282C1084.7 156.478 1203.68 205.444 1281 150.035" stroke="#E6F6FE"/></svg>