<svg width="33" height="35" fill="none" xmlns="http://www.w3.org/2000/svg"><path d="M27.381 11.136a1.33 1.33 0 0 0-1.025-.275c-.373.052-.695.252-.869.539a11.952 11.952 0 0 1-2.242 2.697c.09-.58.134-1.162.134-1.747 0-1.122-.176-2.276-.524-3.431-1.143-3.795-4.139-7.005-8.22-8.805a1.376 1.376 0 0 0-1.128.014c-.35.166-.579.47-.61.811-.318 3.449-2.399 6.586-5.712 8.61l-.13.081c-.091.057-.176.11-.255.155a1.33 1.33 0 0 0-.037.021c-2.084 1.274-3.803 2.972-4.973 4.91C.602 16.69 0 18.805 0 21.006c0 1.122.176 2.276.523 3.431 1.834 6.091 8.254 10.345 15.614 10.345 8.898 0 16.137-6.18 16.137-13.776 0-3.746-1.738-7.251-4.893-9.87Z" fill="#011632"/><path d="M15.52 25.295c2.728 0 4.94-1.887 4.94-4.216 0-2.328-2.212-4.216-4.94-4.216-2.727 0-4.938 1.888-4.938 4.216 0 2.329 2.211 4.216 4.939 4.216Z" fill="#fff"/></svg>