<svg width="34" height="35" fill="none" xmlns="http://www.w3.org/2000/svg"><path d="M28.423 11.136a1.37 1.37 0 0 0-1.042-.275c-.38.052-.708.252-.884.539a12.004 12.004 0 0 1-2.28 2.697c.09-.58.135-1.162.135-1.747 0-1.122-.179-2.276-.532-3.431-1.163-3.795-4.21-7.005-8.36-8.805a1.421 1.421 0 0 0-1.148.014c-.356.166-.589.47-.62.811-.324 3.449-2.44 6.586-5.81 8.61l-.133.081c-.092.057-.178.11-.26.155a1.353 1.353 0 0 0-.037.021c-2.119 1.274-3.867 2.972-5.057 4.91-1.208 1.973-1.82 4.089-1.82 6.29 0 1.122.178 2.276.532 3.431C2.97 30.529 9.5 34.782 16.987 34.782c9.05 0 16.412-6.18 16.412-13.776 0-3.746-1.767-7.251-4.976-9.87Z" fill="#011632"/><path d="M16.359 25.295c2.774 0 5.023-1.887 5.023-4.216 0-2.328-2.249-4.216-5.023-4.216-2.774 0-5.023 1.888-5.023 4.216 0 2.329 2.249 4.216 5.023 4.216Z" fill="#fff"/></svg>