<svg width="33" height="32" fill="none" xmlns="http://www.w3.org/2000/svg"><path d="M16.063 18.8c-1.5 0-2.8-1.2-2.8-2.8 0-1.5 1.2-2.8 2.8-2.8 1.5 0 2.8 1.2 2.8 2.8 0 1.5-1.3 2.8-2.8 2.8Z" fill="#011632"/><path fill-rule="evenodd" clip-rule="evenodd" d="M19.462 9.2h-6.8c-.8.1-1.2.2-1.5.3-.4.1-.7.3-1 .6-.237.237-.35.475-.485.762-.035.075-.073.155-.114.238a5.48 5.48 0 0 1-.053.148 3.53 3.53 0 0 0-.248 1.352v6.8c.1.8.2 1.2.3 1.5.1.4.3.7.6 1 .238.237.475.35.762.485.076.036.155.073.239.115.046.015.095.033.147.052a3.53 3.53 0 0 0 1.352.248h6.8c.8-.1 1.2-.2 1.5-.3.4-.1.7-.3 1-.6.238-.237.35-.475.486-.762.035-.075.073-.155.114-.238l.053-.147a3.53 3.53 0 0 0 .248-1.353v-6.8c-.1-.8-.2-1.2-.3-1.5-.1-.4-.3-.7-.6-1-.238-.237-.475-.35-.762-.485a11.461 11.461 0 0 1-.239-.115c-.046-.015-.095-.033-.147-.052a3.53 3.53 0 0 0-1.353-.248Zm-3.4 2.5c-2.4 0-4.3 1.9-4.3 4.3s1.9 4.3 4.3 4.3 4.3-1.9 4.3-4.3-1.9-4.3-4.3-4.3Zm5.4-.1a1 1 0 1 1-2 0 1 1 0 0 1 2 0Z" fill="#011632"/><path fill-rule="evenodd" clip-rule="evenodd" d="M.063 16c0-8.837 7.163-16 16-16 8.836 0 16 7.163 16 16s-7.164 16-16 16c-8.837 0-16-7.163-16-16Zm12.6-8.3h6.8c.9.1 1.5.2 2 .4.6.3 1 .5 1.5 1s.8 1 1 1.5c.2.5.4 1.1.4 2v6.8c-.1.9-.2 1.5-.4 2-.3.6-.5 1-1 1.5s-1 .8-1.5 1c-.5.2-1.1.4-2 .4h-6.8c-.9-.1-1.5-.2-2-.4-.6-.3-1-.5-1.5-1s-.8-1-1-1.5c-.2-.5-.4-1.1-.4-2v-6.8c.1-.9.2-1.5.4-2 .3-.6.5-1 1-1.5s1-.8 1.5-1c.5-.2 1.1-.4 2-.4Z" fill="#011632"/></svg>