<svg width="48" height="52" fill="none" xmlns="http://www.w3.org/2000/svg"><g clip-path="url('#clip0_168_482')" fill="#fff"><path d="M39.96 5.518c-.18-.37-.604-.516-.948-.323-.345.193-.48.65-.3 1.021a8.793 8.793 0 0 1 .542 6.152c-.226.826-2.215 8.076-2.301 8.436a.153.153 0 0 1-.145.122H20.215c-.388 0-.703.34-.703.757 0 .418.315.757.703.757h14.46l-.391 2.314a.153.153 0 0 1-.147.131h-20.26a.152.152 0 0 1-.146-.131l-.391-2.314h3.813c.388 0 .703-.339.703-.757s-.315-.757-.703-.757h-5.947a.153.153 0 0 1-.144-.121l-.006-.024-2.296-8.413c-.694-2.53-.252-5.192 1.214-7.305 1.467-2.113 3.713-3.325 6.163-3.325.729 0 1.45.11 2.143.325a19.155 19.155 0 0 0 11.454 0 7.195 7.195 0 0 1 2.144-.325c1.885 0 3.693.736 5.093 2.074.29.277.735.249.993-.064a.798.798 0 0 0-.06-1.069C36.248 1.096 34.108.224 31.879.224c-.861 0-1.714.13-2.535.385a17.845 17.845 0 0 1-10.672 0 8.515 8.515 0 0 0-2.534-.385c-2.898 0-5.555 1.433-7.29 3.933-1.734 2.499-2.257 5.649-1.435 8.64l2.292 8.4c.182.733.798 1.243 1.502 1.243h.705l.437 2.585c.134.796.778 1.375 1.53 1.375h3.064l.496 4.605-.495.143a1.999 1.999 0 0 0-1.207.996 2.267 2.267 0 0 0-.198 1.623c.238.955 1.042 1.585 1.92 1.585.146 0 .295-.018.444-.055l.252 2.342-.67.194c-1.058.305-1.688 1.48-1.405 2.62.238.954 1.043 1.585 1.92 1.585.17 0 .342-.024.514-.073l.105-.03.252 2.34-.573.165a2 2 0 0 0-1.207.997 2.268 2.268 0 0 0-.198 1.623c.137.551.466 1.013.925 1.298a1.87 1.87 0 0 0 1.508.214l.009-.003.192 1.775c.095.89.795 1.56 1.626 1.56h5.71c.832 0 1.531-.67 1.627-1.56l.492-4.558.737-.212c1.058-.306 1.688-1.48 1.405-2.62-.215-.862-.892-1.459-1.667-1.567l.287-2.662.788-.227c1.057-.305 1.687-1.48 1.404-2.62-.22-.88-.92-1.484-1.715-1.573l.285-2.641.567-.164c1.058-.305 1.688-1.48 1.405-2.62-.2-.8-.8-1.373-1.506-1.537l.102-.943h3.064c.752 0 1.396-.579 1.53-1.375l.437-2.585h.704c.709 0 1.328-.516 1.506-1.255.062-.257 1.403-5.157 2.289-8.387.67-2.444.442-5.029-.643-7.28ZM27.092 50.17c-.013.126-.112.22-.23.22h-5.71c-.117 0-.216-.094-.23-.22l-.215-1.996 6.813-1.965-.428 3.961Zm2.672-6.823c.083.333-.101.676-.41.765L18.96 47.11a.54.54 0 0 1-.44-.062.615.615 0 0 1-.27-.38.66.66 0 0 1 .057-.473.585.585 0 0 1 .353-.292l10.393-2.998c.05-.014.1-.021.15-.021.256 0 .49.184.56.463Zm-1.751-1.709-7.77 2.242-.252-2.34 8.29-2.393-.268 2.491Zm2.564-5.367c.082.333-.102.676-.41.765l-12.018 3.467c-.31.09-.628-.109-.711-.441-.083-.333.101-.676.41-.766l12.018-3.467c.05-.014.1-.02.15-.02a.59.59 0 0 1 .56.462Zm.541-6.998c.083.333-.101.676-.41.766l-4.297 1.24c-.375.107-.597.522-.497.926.1.404.486.644.861.536l2.269-.655-.27 2.49-9.247 2.668-.252-2.34 4.54-1.31c.376-.108.598-.523.498-.927-.1-.403-.486-.643-.862-.535l-5.844 1.686c-.31.09-.628-.11-.71-.442a.663.663 0 0 1 .057-.474.583.583 0 0 1 .353-.29l13.1-3.78c.31-.09.628.109.711.441Zm-1.581-1.758L18.811 30.61l-.454-4.21h11.3l-.12 1.115Z"/><path d="M29.344 4.646a17.845 17.845 0 0 1-10.672 0c-.373-.116-.763.115-.87.517-.109.401.106.821.48.938 1.872.584 3.8.876 5.726.876 1.927 0 3.854-.292 5.727-.876.374-.117.589-.537.48-.938-.107-.402-.498-.633-.87-.517Z"/></g><defs><clipPath id="clip0_168_482"><path fill="#fff" transform="translate(0 .224)" d="M0 0h48v51.68H0z"/></clipPath></defs></svg>