<svg width="48" height="52" fill="none" xmlns="http://www.w3.org/2000/svg"><g clip-path="url('#clip0_168_437')" stroke="#fff" stroke-width="1.5" stroke-miterlimit="10" stroke-linecap="round" stroke-linejoin="round"><path d="M6.07 20.874c2.199 4.519 5.556 7.325 8.776 9.065 5.145 2.78 10.683 3.131 15.915 1.056l.096-.037M33.809 29.49c2.96-1.762 5.958-4.463 7.977-8.599"/><path d="M.693 20.16c.804 1.04 1.613 2.072 2.424 3.101 4.07 5.168 8.03 10.25 13.335 13.332 5.095 2.96 9.989 2.967 15.097 0 5.305-3.081 9.264-8.164 13.334-13.332.811-1.03 1.62-2.061 2.424-3.101"/><path d="M19.418 21.902v3.357c0 .533.4.965.896.965h2.772c.494 0 .895-.432.895-.965v-3.258M23.988 22v3.26c0 .532.401.964.896.964h2.772c.495 0 .895-.432.895-.965v-3.357M28.582 21.902v3.49c0 .46.346.832.772.832h2.39c.426 0 .771-.372.771-.832v-3.686M32.516 21.708v2.272c0 .434.327.787.73.787h2.26c.404 0 .731-.352.731-.787v-2.542M19.418 21.902v3.49c0 .46-.346.832-.772.832h-2.39c-.426 0-.772-.372-.772-.832v-3.686"/><path d="M15.485 21.708v2.272c0 .434-.327.787-.73.787h-2.26c-.404 0-.731-.352-.731-.787v-2.542"/><path d="M15.443 12.21c2.917-1.147 5.897-1.354 8.557 1.138 5.195-4.867 11.61.56 16.393 3.18 2.285 1.253 4.61 2.41 6.904 3.637 0 0-11.057 1.775-23.287 1.836v0h-.02v0C11.76 21.94.703 20.165.703 20.165c2.295-1.228 4.62-2.384 6.904-3.636 1.46-.8 3.074-1.863 4.758-2.814l.142-.08M39.36 36.878c-.304.695-1.184 2.39-2.737 2.967-.12.045-.12.23 0 .274 1.553.577 2.433 2.272 2.737 2.967a.131.131 0 0 0 .245 0c.304-.695 1.185-2.39 2.737-2.967.12-.045.12-.23 0-.274-1.552-.577-2.433-2.272-2.737-2.967a.131.131 0 0 0-.245 0ZM9.462 2.127c-.418.956-1.632 3.292-3.77 4.086-.165.062-.165.315 0 .377 2.138.794 3.352 3.13 3.77 4.086a.18.18 0 0 0 .337 0c.419-.956 1.632-3.292 3.77-4.086.165-.062.165-.315 0-.377-2.138-.794-3.351-3.13-3.77-4.086a.18.18 0 0 0-.337 0ZM32.441 41.45c-.419.956-1.632 3.292-3.77 4.086-.166.062-.166.316 0 .377 2.138.795 3.351 3.13 3.77 4.087a.18.18 0 0 0 .336 0c.42-.957 1.632-3.292 3.77-4.087.166-.061.166-.315 0-.377-2.138-.794-3.35-3.13-3.77-4.086a.18.18 0 0 0-.336 0Z"/></g><defs><clipPath id="clip0_168_437"><path fill="#fff" transform="translate(0 .224)" d="M0 0h48v51.68H0z"/></clipPath></defs></svg>