<svg width="48" height="52" fill="none" xmlns="http://www.w3.org/2000/svg"><g clip-path="url('#clip0_168_420')"><path d="M41.298 4.8c-1.155-1.11-2.473-2.015-3.91-2.64a13.33 13.33 0 0 0-4.63-1.064 16.468 16.468 0 0 0-.847-.02c-1.478.003-2.996.417-4.392 1.196a7.162 7.162 0 0 1-7.03 0c-1.396-.78-2.915-1.193-4.392-1.197-1.59 0-3.18.234-4.694.775a12.975 12.975 0 0 0-4.057 2.372 14.17 14.17 0 0 0-.635.577c-3.06 2.953-4.694 7.367-4.482 12.113.205 4.295 1.523 10.037 6.505 13.438-.028 1.194-.05 2.423.027 3.666.053.755.114 1.612.239 2.463.675 4.702 2.007 9.958 6.766 13.293 1.142.8 2.99 1.96 4.238.699.872-.881 1.09-2.47 1.152-3.693.002-.057.29-5.322 2.883-10.526 1.047 1.86 2.685 5.558 3.264 11.225.163 1.591.8 3.575 2.59 3.575.933 0 1.778-.555 2.114-.776 2.818-1.851 4.785-4.37 6.012-7.695 1.464-3.955 1.608-7.802 1.32-12.269 4.952-3.42 6.244-9.133 6.43-13.409.224-4.744-1.407-9.155-4.471-12.103ZM29.744 25.581a21.996 21.996 0 0 0-5.1-2.85c-.447-.176-.847-.299-1.286 0a21.96 21.96 0 0 0-5.09 2.842c-.221-3.154-1.08-6.336-1.876-8.646l5.322 1.488a9.127 9.127 0 0 0 5.041-.033l4.836-1.464c-.778 2.335-1.628 5.515-1.847 8.663Zm-4.95 7.625a1.083 1.083 0 0 0-.926-.396c-.35.03-.666.233-.855.55-3.716 6.196-4.089 13.003-4.102 13.288l-.002.026c-2.942-7.604-1.113-16.269-.724-17.898.427-.555 2.735-2.478 5.816-3.719 3.128 1.26 5.46 3.225 5.837 3.745.446 1.581 2.69 10.42-.334 18.107-1.007-9.172-4.558-13.522-4.71-13.703ZM16.83 47.617c-3.882-2.827-5.017-7.396-5.608-11.513-.111-.758-.168-1.564-.218-2.264-.076-1.208-.047-2.41-.016-3.685.016-.722-.059-1.21-.675-1.597-4.492-2.809-5.656-7.948-5.838-11.77-.18-4.01 1.182-7.723 3.736-10.188a10.911 10.911 0 0 1 5.462-2.88c1.974-.39 3.97-.31 5.779.7a9.274 9.274 0 0 0 9.102 0c1.078-.603 2.24-.923 3.362-.926 1.576 0 3.15.273 4.615.908a11.033 11.033 0 0 1 3.265 2.2c2.555 2.458 3.914 6.167 3.727 10.18-.167 3.846-1.326 9.017-5.899 11.831-.337.208-.609.713-.571 1.156.327 4.448.261 8.176-1.123 11.914-.914 2.476-2.31 4.422-4.25 5.922 2.203-5.784 2.054-12.516.58-18.49-.908-3.686.283-7.877 1.448-11.38a2.52 2.52 0 0 0-.46-2.426c-.57-.66-1.424-.925-2.228-.689l-4.858 1.424a7.056 7.056 0 0 1-3.884.025l-5.322-1.488c-.804-.225-1.651.046-2.211.707a2.52 2.52 0 0 0-.451 2.416c1.111 3.334 2.311 7.066 1.657 10.648-.438 2.402-.842 4.756-.933 7.213a34.806 34.806 0 0 0 .258 5.863c.209 1.57.542 3.138 1.012 4.642 0 0 .333 1.27.542 1.547Z" fill="#fff" stroke="#25B4F8" stroke-width=".7"/></g><defs><clipPath id="clip0_168_420"><path fill="#fff" transform="translate(0 .224)" d="M0 0h48v51.68H0z"/></clipPath></defs></svg>