<svg width="33" height="32" fill="none" xmlns="http://www.w3.org/2000/svg"><path d="m18.663 16-4.2-2.4v4.8l4.2-2.4Z" fill="#011632"/><path fill-rule="evenodd" clip-rule="evenodd" d="M.063 16c0-8.837 7.163-16 16-16 8.836 0 16 7.163 16 16s-7.164 16-16 16c-8.837 0-16-7.163-16-16Zm22.2-5.3c.7.2 1.2.7 1.4 1.4.4 1.3.4 3.9.4 3.9s0 2.6-.3 3.9c-.2.7-.7 1.2-1.4 1.4-1.3.3-6.3.3-6.3.3s-5.1 0-6.3-.3c-.7-.2-1.2-.7-1.4-1.4-.3-1.3-.3-3.9-.3-3.9s0-2.6.2-3.9c.2-.7.7-1.2 1.4-1.4 1.3-.3 6.3-.3 6.3-.3s5.1 0 6.3.3Z" fill="#011632"/></svg>